<svg width="24" height="24" viewBox="0 0 24 24" fill="none" xmlns="http://www.w3.org/2000/svg">
<path fill-rule="evenodd" clip-rule="evenodd" d="M10.9576 2.14601C8.60727 2.63735 6.79195 4.01276 5.76037 6.08381C4.57814 8.45723 4.76204 10.7323 6.39953 13.9893C7.36635 15.9125 8.72728 17.9442 10.5508 20.187C11.8467 21.7809 12.0698 22 12.3968 22C12.7237 22 12.9468 21.7809 14.2427 20.187C17.1809 16.5733 19.0269 13.3302 19.6391 10.7069C19.8441 9.82904 19.8278 8.50662 19.6009 7.58083C19.3755 6.66136 18.7615 5.44046 18.1523 4.70012C16.4378 2.61696 13.5717 1.59949 10.9576 2.14601ZM13.1324 5.67429C15.4762 6.15204 16.7775 8.69059 15.7537 10.7876C14.611 13.1278 11.4056 13.5887 9.63797 11.667C8.90886 10.8743 8.55817 9.73909 8.724 8.70794C9.05502 6.64979 11.0804 5.25602 13.1324 5.67429Z" fill="white"/>
<mask id="mask0_67_122" style="mask-type:alpha" maskUnits="userSpaceOnUse" x="5" y="2" width="15" height="20">
<path fill-rule="evenodd" clip-rule="evenodd" d="M10.9576 2.14601C8.60727 2.63735 6.79195 4.01276 5.76037 6.08381C4.57814 8.45723 4.76204 10.7323 6.39953 13.9893C7.36635 15.9125 8.72728 17.9442 10.5508 20.187C11.8467 21.7809 12.0698 22 12.3968 22C12.7237 22 12.9468 21.7809 14.2427 20.187C17.1809 16.5733 19.0269 13.3302 19.6391 10.7069C19.8441 9.82904 19.8278 8.50662 19.6009 7.58083C19.3755 6.66136 18.7615 5.44046 18.1523 4.70012C16.4378 2.61696 13.5717 1.59949 10.9576 2.14601ZM13.1324 5.67429C15.4762 6.15204 16.7775 8.69059 15.7537 10.7876C14.611 13.1278 11.4056 13.5887 9.63797 11.667C8.90886 10.8743 8.55817 9.73909 8.724 8.70794C9.05502 6.64979 11.0804 5.25602 13.1324 5.67429Z" fill="white"/>
</mask>
<g mask="url(#mask0_67_122)">
<path d="M12.3914 1.13037H25.8696V22.8695H12.3914V1.13037Z" fill="#EFEFEF"/>
</g>
</svg>
