<svg width="24" height="24" viewBox="0 0 24 24" fill="none" xmlns="http://www.w3.org/2000/svg">
<g clip-path="url(#clip0_67_121)">
<path d="M2 18.2123C2 18.4212 2.07766 18.6216 2.21591 18.7693C2.35415 18.917 2.54165 19 2.73716 19H21.2628C21.4583 18.9997 21.6456 18.9167 21.7838 18.769C21.922 18.6213 21.9998 18.4211 22 18.2123V6C22 5.44771 21.5523 5 21 5H3C2.44772 5 2 5.44772 2 6V18.2123Z" fill="#EFEFEF"/>
<path d="M2.73716 18.9998H21.2628C21.4583 18.9995 21.6456 18.9207 21.7838 18.7806C21.922 18.6404 21.9998 18.4504 22 18.2522L14.8861 12.1108H9.10631L2 18.2522C2 18.4505 2.07766 18.6406 2.21591 18.7808C2.35415 18.921 2.54165 18.9998 2.73716 18.9998Z" fill="#D3D2D2"/>
<path d="M21 5H3L9 13H15L21 5Z" fill="white"/>
</g>
<defs>
<clipPath id="clip0_67_121">
<rect width="20" height="14" fill="white" transform="translate(2 5)"/>
</clipPath>
</defs>
</svg>
