<svg width="20" height="20" viewBox="0 0 20 20" fill="none" xmlns="http://www.w3.org/2000/svg">
<path fill-rule="evenodd" clip-rule="evenodd" d="M10.3249 0.0505553C10.3243 0.113111 10.1939 0.987563 10.1337 1.33334C10.0988 1.53383 10.1152 1.544 10.6102 1.63009C12.3303 1.92918 14.1532 2.86463 15.5447 4.16227C16.9116 5.437 18.0174 7.38139 18.3871 9.16025C18.4669 9.54387 18.5057 9.60924 18.6512 9.60572C18.8822 9.60017 19.9517 9.40695 19.9959 9.36277C20.0153 9.34338 19.9636 9.0446 19.8809 8.69874C18.8508 4.39177 15.4817 1.08992 11.1643 0.155806C10.3014 -0.0308454 10.3258 -0.0277958 10.3249 0.0505553ZM2.5689 2.17128C2.00321 2.53613 0.408643 4.20934 0.219296 4.63676C-0.567064 6.41193 0.818737 10.1796 3.45777 13.4414C4.8326 15.1407 6.28191 16.4567 8.11148 17.6671C10.8316 19.4667 13.5241 20.33 15.0271 19.8843C15.2598 19.8153 15.5922 19.6603 15.7657 19.5399C16.2021 19.237 17.7942 17.6018 17.9501 17.2964C18.1559 16.8935 18.1165 16.3467 17.8526 15.9394C17.7287 15.7482 17.0501 15.022 16.3445 14.3257C14.2908 12.2988 14.0597 12.2781 12.3475 13.9668L11.4247 14.877L11.0142 14.687C10.4599 14.4303 9.54395 13.829 8.87004 13.2793C8.11477 12.6632 6.7025 11.1726 6.16273 10.4218C5.72836 9.81771 5.15726 8.77686 5.15726 8.5895C5.15726 8.53743 5.59367 8.05066 6.1271 7.50783C6.87172 6.74997 7.11706 6.4483 7.18377 6.20824C7.30014 5.7895 7.29427 5.7185 7.1086 5.30986C6.92395 4.9034 4.62666 2.53465 4.06519 2.17174C3.58149 1.85912 3.05315 1.85897 2.5689 2.17128ZM10.1324 4.07563C10.0913 4.19957 9.934 5.25942 9.934 5.41237C9.934 5.48587 10.1168 5.57048 10.4626 5.65712C11.5396 5.92681 12.5751 6.57114 13.2624 7.39938C13.6898 7.91437 14.1942 8.9065 14.3383 9.51572C14.4218 9.86854 14.4595 9.92444 14.5931 9.89332C14.6793 9.87323 15.0247 9.81372 15.3605 9.7611L15.9711 9.66539L15.9228 9.42259C15.6703 8.15497 14.9829 6.89909 14.0113 5.92994C13.1906 5.1114 12.2275 4.53886 11.1478 4.22788C10.3002 3.98375 10.1694 3.96413 10.1324 4.07563Z" fill="white"/>
</svg>
