<svg width="20" height="20" viewBox="0 0 20 20" fill="none" xmlns="http://www.w3.org/2000/svg">
<path fill-rule="evenodd" clip-rule="evenodd" d="M6.78627 0.0595101C5.96916 0.204911 4.63738 0.708576 3.89201 1.15412C2.94473 1.72036 1.73884 2.92746 1.17317 3.87571C0.682397 4.69845 0.211587 6.00357 0.0652 6.94745C0.00591278 7.32954 -0.0160582 8.00165 0.0122776 8.56204C0.258145 13.4152 4.72657 16.993 9.49945 16.158C10.7544 15.9385 12.0253 15.4059 12.941 14.7156L13.385 14.3809L16.1198 17.1196C17.624 18.6258 18.9612 19.9023 19.0914 19.9564C19.5918 20.1638 20.1636 19.5914 19.9564 19.0905C19.9024 18.9601 18.6271 17.6216 17.1225 16.1159L14.3866 13.3783L14.721 12.9338C14.9049 12.6895 15.1945 12.2145 15.3646 11.8785C17.7254 7.21521 15.3457 1.74061 10.3173 0.266963C9.69265 0.0838599 9.30153 0.030622 8.39923 0.00557396C7.77585 -0.0117065 7.05001 0.012556 6.78627 0.0595101ZM9.75063 1.5925C10.5614 1.78416 11.7932 2.40538 12.4595 2.95871C13.4699 3.79768 14.3334 5.16974 14.6953 6.51107C14.9049 7.28782 14.9002 9.04249 14.6865 9.82247C13.6182 13.7221 9.58594 15.828 5.8178 14.4543C4.26543 13.8885 2.89965 12.68 2.16423 11.2217C0.0665951 7.06213 2.65526 2.10324 7.2658 1.44893C7.92441 1.35546 9.01399 1.41839 9.75063 1.5925Z" fill="#222222"/>
</svg>
