<svg width="30" height="30" viewBox="0 0 30 30" fill="none" xmlns="http://www.w3.org/2000/svg">
<circle cx="15" cy="15" r="15" fill="white"/>
<path d="M23.0896 10.3438L23.0844 10.3229C22.6627 8.6181 20.7614 6.7887 19.0155 6.40811L18.9958 6.40405C16.1717 5.86532 13.3083 5.86532 10.4849 6.40405L10.4646 6.40811C8.71918 6.7887 6.81796 8.6181 6.39565 10.3229L6.39102 10.3438C5.86966 12.7247 5.86966 15.1392 6.39102 17.52L6.39565 17.5409C6.79994 19.173 8.55959 20.9183 10.2404 21.3983V23.3014C10.2404 23.9902 11.0798 24.3285 11.5571 23.8314L13.4853 21.8272C13.9035 21.8506 14.3219 21.8636 14.7403 21.8636C16.1619 21.8636 17.584 21.7292 18.9958 21.4598L19.0155 21.4558C20.7614 21.0752 22.6627 19.2458 23.0844 17.5409L23.0896 17.5201C23.611 15.1392 23.611 12.7247 23.0896 10.3438ZM21.5638 17.1748C21.2822 18.287 19.8386 19.6698 18.6916 19.9252C17.1901 20.2108 15.6766 20.3328 14.1647 20.2909C14.1346 20.2901 14.1057 20.3018 14.0847 20.3233C13.8702 20.5436 12.6769 21.7685 12.6769 21.7685L11.1794 23.3054C11.0699 23.4195 10.8776 23.3419 10.8776 23.1843V20.0317C10.8776 19.9796 10.8404 19.9354 10.7893 19.9254C10.7896 19.9254 10.789 19.9253 10.7893 19.9254C9.64228 19.6699 8.1984 18.287 7.91629 17.1747C7.44706 15.0227 7.44706 12.8411 7.91629 10.689C8.1984 9.57676 9.64141 8.194 10.7884 7.93853C13.4108 7.43976 16.0698 7.43976 18.6916 7.93853C19.8392 8.194 21.2822 9.57676 21.5638 10.689C22.0335 12.8411 22.0335 15.0227 21.5638 17.1748Z" fill="#7D3DAF"/>
<path d="M17.2356 18.6302C17.0592 18.5767 16.8912 18.5407 16.7351 18.4759C15.118 17.805 13.6297 16.9394 12.4507 15.6126C11.7803 14.858 11.2556 14.0062 10.8121 13.1047C10.6017 12.6772 10.4245 12.2329 10.2438 11.7916C10.079 11.3891 10.3217 10.9733 10.5772 10.67C10.817 10.3854 11.1255 10.1676 11.4596 10.0071C11.7204 9.88176 11.9777 9.954 12.1682 10.1751C12.5799 10.653 12.9581 11.1553 13.2644 11.7093C13.4527 12.05 13.4011 12.4666 13.0598 12.6984C12.9768 12.7548 12.9012 12.821 12.8239 12.8846C12.7561 12.9404 12.6924 12.9968 12.6459 13.0723C12.561 13.2105 12.5569 13.3735 12.6116 13.5238C13.0325 14.6805 13.742 15.58 14.9062 16.0645C15.0925 16.142 15.2796 16.2322 15.4943 16.2072C15.8537 16.1652 15.9701 15.7709 16.222 15.5649C16.4682 15.3636 16.7828 15.361 17.048 15.5288C17.3132 15.6967 17.5704 15.8769 17.826 16.059C18.0769 16.2378 18.3266 16.4127 18.5581 16.6165C18.7806 16.8124 18.8572 17.0695 18.7319 17.3355C18.5025 17.8225 18.1687 18.2278 17.6872 18.4864C17.5513 18.5593 17.3889 18.583 17.2356 18.6302C17.0592 18.5766 17.3889 18.583 17.2356 18.6302Z" fill="#7D3DAF"/>
<path d="M14.7449 9.4501C16.8602 9.50936 18.5975 10.9132 18.9698 13.0044C19.0332 13.3607 19.0558 13.725 19.084 14.0867C19.0959 14.2388 19.0098 14.3833 18.8456 14.3853C18.6761 14.3873 18.5998 14.2455 18.5888 14.0934C18.567 13.7924 18.5519 13.4901 18.5104 13.1916C18.2914 11.6158 17.0349 10.3122 15.4665 10.0325C15.2305 9.99034 14.9889 9.97928 14.7499 9.9542C14.5987 9.93832 14.4008 9.92917 14.3673 9.74131C14.3392 9.5838 14.4722 9.45838 14.6221 9.45033C14.6629 9.44807 14.7039 9.44992 14.7449 9.4501C16.8602 9.50936 14.7039 9.44992 14.7449 9.4501Z" fill="#7D3DAF"/>
<path d="M17.9589 13.6171C17.9554 13.6435 17.9536 13.7056 17.9381 13.7641C17.882 13.9765 17.56 14.0031 17.4858 13.7888C17.4639 13.7252 17.4606 13.6528 17.4605 13.5843C17.4597 13.1363 17.3623 12.6888 17.1364 12.299C16.9042 11.8983 16.5494 11.5615 16.1332 11.3577C15.8816 11.2345 15.6094 11.1579 15.3336 11.1123C15.2131 11.0924 15.0912 11.0802 14.9701 11.0634C14.8233 11.043 14.7449 10.9494 14.7519 10.8048C14.7584 10.6692 14.8574 10.5717 15.0052 10.5801C15.4906 10.6077 15.9595 10.7126 16.391 10.9411C17.2687 11.4059 17.77 12.1395 17.9163 13.1191C17.9229 13.1634 17.9336 13.2074 17.9369 13.2519C17.9452 13.3619 17.9504 13.4721 17.9589 13.6171C17.9554 13.6435 17.9504 13.4721 17.9589 13.6171Z" fill="#7D3DAF"/>
<path d="M16.6437 13.5658C16.4667 13.569 16.372 13.471 16.3537 13.3088C16.341 13.1956 16.331 13.081 16.304 12.9709C16.2508 12.7542 16.1356 12.5533 15.9533 12.4204C15.8672 12.3577 15.7696 12.312 15.6674 12.2825C15.5376 12.245 15.4028 12.2553 15.2733 12.2236C15.1326 12.1891 15.0548 12.0752 15.077 11.9433C15.0971 11.8232 15.2139 11.7294 15.3451 11.7389C16.1652 11.7981 16.7513 12.2221 16.835 13.1876C16.8409 13.2557 16.8479 13.3277 16.8327 13.3929C16.8068 13.5044 16.7242 13.5603 16.6437 13.5658C16.4667 13.569 16.7242 13.5603 16.6437 13.5658Z" fill="#7D3DAF"/>
</svg>
