<svg width="30" height="30" viewBox="0 0 30 30" fill="none" xmlns="http://www.w3.org/2000/svg">
<circle cx="15" cy="15" r="15" fill="white"/>
<path fill-rule="evenodd" clip-rule="evenodd" d="M21.3667 7.96502C19.7458 6.34228 17.5903 5.44822 15.2938 5.44727C10.5618 5.44727 6.71063 9.29834 6.70873 14.0316C6.7081 15.5447 7.10336 17.0217 7.85467 18.3236L6.63672 22.7723L11.1878 21.5784C12.4418 22.2625 13.8536 22.623 15.2903 22.6234H15.2939C20.0254 22.6234 23.877 18.772 23.8788 14.0385C23.8798 11.7445 22.9876 9.58765 21.3667 7.96502ZM15.2938 21.1735H15.2909C14.0105 21.173 12.7548 20.8289 11.6591 20.1789L11.3987 20.0242L8.69797 20.7327L9.41883 18.0996L9.24911 17.8296C8.53481 16.6935 8.15763 15.3804 8.15826 14.0322C8.15974 10.098 11.3608 6.89722 15.2967 6.89722C17.2026 6.89785 18.9942 7.64102 20.3414 8.98978C21.6885 10.3385 22.43 12.1313 22.4294 14.038C22.4277 17.9725 19.2268 21.1735 15.2938 21.1735ZM19.2078 15.8294C18.9934 15.7219 17.9387 15.2032 17.742 15.1315C17.5455 15.0599 17.4023 15.0242 17.2595 15.2389C17.1164 15.4536 16.7054 15.9368 16.5802 16.0799C16.455 16.223 16.33 16.241 16.1154 16.1336C15.9009 16.0263 15.2098 15.7997 14.3904 15.0689C13.7527 14.5001 13.3222 13.7976 13.197 13.583C13.072 13.3681 13.196 13.2632 13.2911 13.1452C13.5234 12.8568 13.7559 12.5545 13.8274 12.4114C13.899 12.2682 13.8631 12.1429 13.8094 12.0356C13.7559 11.9283 13.3269 10.8724 13.1482 10.4428C12.9739 10.0247 12.7972 10.0812 12.6655 10.0746C12.5405 10.0684 12.3974 10.0671 12.2543 10.0671C12.1114 10.0671 11.8789 10.1207 11.6823 10.3356C11.4857 10.5503 10.9316 11.0692 10.9316 12.1251C10.9316 13.1809 11.7002 14.2009 11.8075 14.3441C11.9147 14.4873 13.3201 16.654 15.4719 17.583C15.9837 17.8042 16.3832 17.9361 16.6948 18.035C17.2087 18.1982 17.6762 18.1752 18.0459 18.12C18.4581 18.0583 19.3149 17.601 19.4938 17.1C19.6725 16.5989 19.6725 16.1694 19.6188 16.0799C19.5653 15.9904 19.4223 15.9368 19.2078 15.8294Z" fill="#4CAF50"/>
</svg>
